<?xml version="1.0" encoding="utf-8"?>
<svg contentScriptType="text/ecmascript" xmlns:xlink="http://www.w3.org/1999/xlink" zoomAndPan="magnify" contentStyleType="text/css" viewBox="35.0 285.0 3630.0 400.60000000000014" xmlns:cacoo="http://cacoo.com/" preserveAspectRatio="xMidYMin meet" xmlns="http://www.w3.org/2000/svg" version="1.1"><g><path fill="#444444" fill-opacity="1.0" d="M50.0 300.0 L249.99999999999994 300.0 L249.99999999999994 356.1769205986464 L50.0 356.1769205986464 L50.0 300.0z" stroke="none"/><path fill="#444444" fill-opacity="1.0" d="M649.0 408.0 L698.9999991393802 408.0 L698.9999991393802 464.1769205986464 L649.0 464.1769205986464 L649.0 408.0z" stroke="none"/><path fill="#444444" fill-opacity="1.0" d="M550.0 300.0 L599.9999991393802 300.0 L599.9999991393802 581.0000000000002 L550.0 581.0000000000002 L550.0 300.0z" stroke="none"/><path fill="#444444" fill-opacity="1.0" d="M124.0 300.0 L173.99999913938018 300.0 L173.99999913938018 581.0000000000002 L124.0 581.0000000000002 L124.0 300.0z" stroke="none"/><path fill="#444444" fill-opacity="1.0" d="M299.0 408.0 L348.9999991393802 408.0 L348.9999991393802 558.2000000000002 L299.0 558.2000000000002 L299.0 408.0z" stroke="none"/><path fill="#444444" fill-opacity="1.0" d="M449.0 408.0 L498.9999991393802 408.0 L498.9999991393802 558.2000000000002 L449.0 558.2000000000002 L449.0 408.0z" stroke="none"/><path fill="#444444" fill-opacity="1.0" d="M340.0 502.0 L459.99999999999994 502.0 L459.99999999999994 558.1769205986463 L340.0 558.1769205986463 L340.0 502.0z" stroke="none"/><path fill="#444444" fill-opacity="1.0" d="M340.0 408.0 L459.99999999999994 408.0 L459.99999999999994 464.1769205986464 L340.0 464.1769205986464 L340.0 408.0z" stroke="none"/><path fill="#444444" fill-opacity="1.0" d="M590.0 463.82307940135365 L649.9999991393802 463.82307940135365 L649.9999991393802 520.0 L590.0 520.0 L590.0 463.82307940135365z" stroke="none"/><path fill="#444444" fill-opacity="1.0" d="M650.0 520.0 L699.9999991393802 520.0 L699.9999991393802 576.1769205986463 L650.0 576.1769205986463 L650.0 520.0z" stroke="none"/><path fill="#444444" fill-opacity="1.0" d="M750.0 408.0 L799.9999991393802 408.0 L799.9999991393802 558.2000000000002 L750.0 558.2000000000002 L750.0 408.0z" stroke="none"/><path fill="#444444" fill-opacity="1.0" d="M900.0 408.0 L949.9999991393802 408.0 L949.9999991393802 670.6000000000003 L900.0 670.6000000000003 L900.0 408.0z" stroke="none"/><path fill="#444444" fill-opacity="1.0" d="M790.0 502.0 L910.0 502.0 L910.0 558.1769205986463 L790.0 558.1769205986463 L790.0 502.0z" stroke="none"/><path fill="#444444" fill-opacity="1.0" d="M999.0 408.0 L1048.9999991393802 408.0 L1048.9999991393802 558.2000000000002 L999.0 558.2000000000002 L999.0 408.0z" stroke="none"/><path fill="#444444" fill-opacity="1.0" d="M1149.0 408.0 L1198.9999991393802 408.0 L1198.9999991393802 558.2000000000003 L1149.0 558.2000000000003 L1149.0 408.0z" stroke="none"/><path fill="#444444" fill-opacity="1.0" d="M1040.0 501.99999999999994 L1160.0 501.99999999999994 L1160.0 558.1769205986463 L1040.0 558.1769205986463 L1040.0 501.99999999999994z" stroke="none"/><path fill="#be1e2d" fill-opacity="1.0" d="M1350.0 460.0 L1399.9999991393802 460.0 L1399.9999991393802 524.7769205986464 L1350.0 524.7769205986464 L1350.0 460.0z" stroke="none"/><path fill="#be1e2d" fill-opacity="1.0" d="M1250.0 300.0 L1299.9999991393802 300.0 L1299.9999991393802 581.0000000000002 L1250.0 581.0000000000002 L1250.0 300.0z" stroke="none"/><path fill="#be1e2d" fill-opacity="1.0" d="M1290.0 300.0 L1450.0 300.0 L1450.0 356.1769205986464 L1290.0 356.1769205986464 L1290.0 300.0z" stroke="none"/><path fill="#be1e2d" fill-opacity="1.0" d="M1290.0 412.4 L1450.0 412.4 L1450.0 468.5769205986464 L1290.0 468.5769205986464 L1290.0 412.4z" stroke="none"/><path fill="#be1e2d" fill-opacity="1.0" d="M1400.0 524.8 L1449.9999991393802 524.8 L1449.9999991393802 580.9769205986463 L1400.0 580.9769205986463 L1400.0 524.8z" stroke="none"/><path fill="#be1e2d" fill-opacity="1.0" d="M1400.0000008606198 350.0 L1450.0 350.0 L1450.0 419.99999999999994 L1400.0000008606198 419.99999999999994 L1400.0000008606198 350.0z" stroke="none"/><path fill="#be1e2d" fill-opacity="1.0" d="M1500.0 408.0 L1549.9999991393802 408.0 L1549.9999991393802 558.2000000000002 L1500.0 558.2000000000002 L1500.0 408.0z" stroke="none"/><path fill="#be1e2d" fill-opacity="1.0" d="M1650.0 408.0 L1699.9999991393802 408.0 L1699.9999991393802 558.2000000000003 L1650.0 558.2000000000003 L1650.0 408.0z" stroke="none"/><path fill="#be1e2d" fill-opacity="1.0" d="M1540.0 502.0 L1660.0 502.0 L1660.0 558.1769205986463 L1540.0 558.1769205986463 L1540.0 502.0z" stroke="none"/><path fill="#be1e2d" fill-opacity="1.0" d="M1750.0000008606198 351.8 L1800.0 351.8 L1800.0 558.2000000000003 L1750.0000008606198 558.2000000000003 L1750.0000008606198 351.8z" stroke="none"/><path fill="#be1e2d" fill-opacity="1.0" d="M1900.0000008606198 408.0 L1950.0 408.0 L1950.0 558.2000000000002 L1900.0000008606198 558.2000000000002 L1900.0000008606198 408.0z" stroke="none"/><path fill="#be1e2d" fill-opacity="1.0" d="M1790.0 502.0 L1910.0 502.0 L1910.0 558.1769205986463 L1790.0 558.1769205986463 L1790.0 502.0z" stroke="none"/><path fill="#be1e2d" fill-opacity="1.0" d="M1790.0 408.0 L1910.0 408.0 L1910.0 464.1769205986464 L1790.0 464.1769205986464 L1790.0 408.0z" stroke="none"/><path fill="#be1e2d" fill-opacity="1.0" d="M2000.00000086062 408.0 L2050.0 408.0 L2050.0 558.2000000000002 L2000.00000086062 558.2000000000002 L2000.00000086062 408.0z" stroke="none"/><path fill="#be1e2d" fill-opacity="1.0" d="M2150.0000008606203 408.0 L2200.0000000000005 408.0 L2200.0000000000005 670.6000000000003 L2150.0000008606203 670.6000000000003 L2150.0000008606203 408.0z" stroke="none"/><path fill="#be1e2d" fill-opacity="1.0" d="M2040.0 502.0 L2160.0 502.0 L2160.0 558.1769205986463 L2040.0 558.1769205986463 L2040.0 502.0z" stroke="none"/><path fill="#444444" fill-opacity="1.0" d="M2250.00000086062 300.0 L2300.0 300.0 L2300.0 558.2000000000003 L2250.00000086062 558.2000000000003 L2250.00000086062 300.0z" stroke="none"/><path fill="#444444" fill-opacity="1.0" d="M2290.0 408.0 L2400.00000086062 408.0 L2400.00000086062 464.1769205986464 L2290.0 464.1769205986464 L2290.0 408.0z" stroke="none"/><path fill="#444444" fill-opacity="1.0" d="M2400.00000086062 300.0 L2450.0 300.0 L2450.0 408.0000000000001 L2400.00000086062 408.0000000000001 L2400.00000086062 300.0z" stroke="none"/><path fill="#444444" fill-opacity="1.0" d="M2400.0 464.2 L2449.99999913938 464.2 L2449.99999913938 558.2000000000002 L2400.0 558.2000000000002 L2400.0 464.2z" stroke="none"/><path fill="#444444" fill-opacity="1.0" d="M2490.00000086062 464.2 L2540.0 464.2 L2540.0 558.2000000000002 L2490.00000086062 558.2000000000002 L2490.00000086062 464.2z" stroke="none"/><path fill="#444444" fill-opacity="1.0" d="M2640.00000086062 408.0 L2690.0 408.0 L2690.0 558.2000000000002 L2640.00000086062 558.2000000000002 L2640.00000086062 408.0z" stroke="none"/><path fill="#444444" fill-opacity="1.0" d="M2530.0 502.0 L2650.0 502.0 L2650.0 558.1769205986463 L2530.0 558.1769205986463 L2530.0 502.0z" stroke="none"/><path fill="#444444" fill-opacity="1.0" d="M2540.00000086062 408.0 L2650.0 408.0 L2650.0 464.1769205986464 L2540.00000086062 464.1769205986464 L2540.00000086062 408.0z" stroke="none"/><path fill="#444444" fill-opacity="1.0" d="M2750.0 464.2 L2799.99999913938 464.2 L2799.99999913938 558.2000000000002 L2750.0 558.2000000000002 L2750.0 464.2z" stroke="none"/><path fill="#444444" fill-opacity="1.0" d="M2750.0 351.8 L2799.99999913938 351.8 L2799.99999913938 407.9769205986464 L2750.0 407.9769205986464 L2750.0 351.8z" stroke="none"/><path fill="#444444" fill-opacity="1.0" d="M2850.0 408.0 L2899.99999913938 408.0 L2899.99999913938 558.2000000000002 L2850.0 558.2000000000002 L2850.0 408.0z" stroke="none"/><path fill="#444444" fill-opacity="1.0" d="M3000.0 408.0 L3049.99999913938 408.0 L3049.99999913938 558.2000000000002 L3000.0 558.2000000000002 L3000.0 408.0z" stroke="none"/><path fill="#444444" fill-opacity="1.0" d="M2890.0 502.0 L3010.0 502.0 L3010.0 558.1769205986463 L2890.0 558.1769205986463 L2890.0 502.0z" stroke="none"/><path fill="#444444" fill-opacity="1.0" d="M2890.0 408.0 L3010.0 408.0 L3010.0 464.1769205986464 L2890.0 464.1769205986464 L2890.0 408.0z" stroke="none"/><path fill="#444444" fill-opacity="1.0" d="M2950.00000086062 558.2 L3000.0 558.2 L3000.0 614.3769205986464 L2950.00000086062 614.3769205986464 L2950.00000086062 558.2z" stroke="none"/><path fill="#444444" fill-opacity="1.0" d="M2900.00000086062 614.4 L2950.0 614.4 L2950.0 670.5769205986463 L2900.00000086062 670.5769205986463 L2900.00000086062 614.4z" stroke="none"/><path fill="#444444" fill-opacity="1.0" d="M3100.0 464.2 L3149.99999913938 464.2 L3149.99999913938 558.2000000000002 L3100.0 558.2000000000002 L3100.0 464.2z" stroke="none"/><path fill="#444444" fill-opacity="1.0" d="M3100.0 351.8 L3149.99999913938 351.8 L3149.99999913938 407.9769205986464 L3100.0 407.9769205986464 L3100.0 351.8z" stroke="none"/><path fill="#ffffff" fill-opacity="1.0" d="M3200.0 300.0 L3249.99999913938 300.0 L3249.99999913938 558.2000000000003 L3200.0 558.2000000000003 L3200.0 300.0z" stroke="none"/><path fill="#ffffff" fill-opacity="1.0" d="M3350.0 300.0 L3399.99999913938 300.0 L3399.99999913938 558.2000000000003 L3350.0 558.2000000000003 L3350.0 300.0z" stroke="none"/><path fill="#ffffff" fill-opacity="1.0" d="M3240.0 502.0 L3360.0 502.0 L3360.0 558.1769205986463 L3240.0 558.1769205986463 L3240.0 502.0z" stroke="none"/><path fill="#ffffff" fill-opacity="1.0" d="M3240.0 300.0 L3360.0 300.0 L3360.0 356.1769205986464 L3240.0 356.1769205986464 L3240.0 300.0z" stroke="none"/><path fill="#ffffff" fill-opacity="1.0" d="M3450.00000086062 300.0 L3500.0 300.0 L3500.0 468.4000000000001 L3450.00000086062 468.4000000000001 L3450.00000086062 300.0z" stroke="none"/><path fill="#ffffff" fill-opacity="1.0" d="M3600.00000086062 300.0 L3650.0 300.0 L3650.0 558.2000000000003 L3600.00000086062 558.2000000000003 L3600.00000086062 300.0z" stroke="none"/><path fill="#ffffff" fill-opacity="1.0" d="M3490.0 412.4 L3610.0 412.4 L3610.0 468.5769205986464 L3490.0 468.5769205986464 L3490.0 412.4z" stroke="none"/><path fill="#ffffff" fill-opacity="1.0" d="M3490.0 300.0 L3610.0 300.0 L3610.0 356.1769205986464 L3490.0 356.1769205986464 L3490.0 300.0z" stroke="none"/></g></svg>